# Blender v2.92.0 OBJ File: ''
# www.blender.org
o Cube_Cube.001
v -1.000000 -6.545453 1.000000
v -1.000000 6.545453 1.000000
v -1.000000 -6.545453 -1.000000
v -1.000000 6.545453 -1.000000
v 1.000000 -6.545453 1.000000
v 1.000000 6.545453 1.000000
v 1.000000 -6.545453 -1.000000
v 1.000000 6.545453 -1.000000
v -1.525069 6.898743 1.525069
v -1.525069 6.898743 -1.525069
v 1.525069 6.898743 -1.525069
v 1.525069 6.898743 1.525069
v -0.061768 9.920116 0.061768
v -0.061768 9.920116 -0.061768
v 0.061768 9.920116 -0.061768
v 0.061768 9.920116 0.061768
vt 0.625000 0.000000
vt 0.375000 0.250000
vt 0.375000 0.000000
vt 0.625000 0.250000
vt 0.375000 0.500000
vt 0.625000 0.500000
vt 0.375000 0.750000
vt 0.625000 0.750000
vt 0.375000 1.000000
vt 0.125000 0.750000
vt 0.125000 0.500000
vt 0.625000 0.750000
vt 0.625000 0.000000
vt 0.625000 0.250000
vt 0.625000 0.250000
vt 0.625000 1.000000
vt 0.625000 1.000000
vt 0.625000 0.500000
vt 0.875000 0.500000
vt 0.625000 0.750000
vt 0.625000 0.500000
vt 0.625000 1.000000
vt 0.625000 0.000000
vt 0.875000 0.750000
vn -1.0000 0.0000 0.0000
vn 0.0000 0.0000 -1.0000
vn 1.0000 0.0000 0.0000
vn 0.0000 0.0000 1.0000
vn 0.0000 -1.0000 0.0000
vn 0.5582 -0.8297 0.0000
vn -0.9000 0.4359 0.0000
vn -0.5582 -0.8297 0.0000
vn 0.0000 -0.8297 0.5582
vn 0.0000 -0.8297 -0.5582
vn 0.0000 1.0000 0.0000
vn 0.0000 0.4359 0.9000
vn 0.0000 0.4359 -0.9000
vn 0.9000 0.4359 0.0000
s off
f 2/1/1 3/2/1 1/3/1
f 4/4/2 7/5/2 3/2/2
f 8/6/3 5/7/3 7/5/3
f 6/8/4 1/9/4 5/7/4
f 7/5/5 1/10/5 3/11/5
f 8/6/6 12/12/6 6/8/6
f 9/13/7 14/14/7 10/15/7
f 2/1/8 10/15/8 4/4/8
f 6/8/9 9/16/9 2/17/9
f 4/4/10 11/18/10 8/6/10
f 14/19/11 16/20/11 15/21/11
f 12/12/12 13/22/12 9/16/12
f 10/15/13 15/21/13 11/18/13
f 11/18/14 16/20/14 12/12/14
f 2/1/1 4/4/1 3/2/1
f 4/4/2 8/6/2 7/5/2
f 8/6/3 6/8/3 5/7/3
f 6/8/4 2/17/4 1/9/4
f 7/5/5 5/7/5 1/10/5
f 8/6/6 11/18/6 12/12/6
f 9/13/7 13/23/7 14/14/7
f 2/1/8 9/13/8 10/15/8
f 6/8/9 12/12/9 9/16/9
f 4/4/10 10/15/10 11/18/10
f 14/19/11 13/24/11 16/20/11
f 12/12/12 16/20/12 13/22/12
f 10/15/13 14/14/13 15/21/13
f 11/18/14 15/21/14 16/20/14
